<mxfile host="app.diagrams.net" modified="2023-04-04T18:23:40.317Z" agent="Mozilla/5.0 (Windows NT 10.0; Win64; x64) AppleWebKit/537.36 (KHTML, like Gecko) Chrome/111.0.0.0 Safari/537.36" etag="HtjCcTW-Jj_GCKd6ilQd" version="21.1.4" type="github">
  <diagram name="Page-1" id="FFiRweq9sxM33hLRRDQR">
    <mxGraphModel dx="2750" dy="1681" grid="1" gridSize="10" guides="1" tooltips="1" connect="1" arrows="1" fold="1" page="1" pageScale="1" pageWidth="850" pageHeight="1100" math="0" shadow="0">
      <root>
        <mxCell id="0" />
        <mxCell id="1" parent="0" />
        <mxCell id="pU8UCUsouBPn-E5W2F4p-1" value="Passenger" style="rounded=0;whiteSpace=wrap;html=1;" vertex="1" parent="1">
          <mxGeometry x="-1640" y="40" width="120" height="60" as="geometry" />
        </mxCell>
        <mxCell id="pU8UCUsouBPn-E5W2F4p-2" value="Booking" style="rounded=0;whiteSpace=wrap;html=1;" vertex="1" parent="1">
          <mxGeometry x="-1200" y="40" width="120" height="60" as="geometry" />
        </mxCell>
        <mxCell id="pU8UCUsouBPn-E5W2F4p-3" value="Flight" style="rounded=0;whiteSpace=wrap;html=1;" vertex="1" parent="1">
          <mxGeometry x="-800" y="40" width="120" height="60" as="geometry" />
        </mxCell>
        <mxCell id="pU8UCUsouBPn-E5W2F4p-4" value="Payment" style="rounded=0;whiteSpace=wrap;html=1;" vertex="1" parent="1">
          <mxGeometry x="-1640" y="200" width="120" height="60" as="geometry" />
        </mxCell>
        <mxCell id="pU8UCUsouBPn-E5W2F4p-5" value="Booking status" style="rounded=0;whiteSpace=wrap;html=1;" vertex="1" parent="1">
          <mxGeometry x="-1200" y="200" width="120" height="60" as="geometry" />
        </mxCell>
        <mxCell id="pU8UCUsouBPn-E5W2F4p-6" value="Airplane" style="rounded=0;whiteSpace=wrap;html=1;" vertex="1" parent="1">
          <mxGeometry x="-800" y="-140" width="120" height="60" as="geometry" />
        </mxCell>
        <mxCell id="pU8UCUsouBPn-E5W2F4p-7" value="Airline" style="rounded=0;whiteSpace=wrap;html=1;" vertex="1" parent="1">
          <mxGeometry x="-800" y="-300" width="120" height="60" as="geometry" />
        </mxCell>
      </root>
    </mxGraphModel>
  </diagram>
</mxfile>
